<?xml version="1.0" encoding="UTF-8"?>
<svg width="132px" height="56px" viewBox="0 0 132 56" version="1.1" xmlns="http://www.w3.org/2000/svg" xmlns:xlink="http://www.w3.org/1999/xlink">
    <!-- Generator: Sketch 52.2 (67145) - http://www.bohemiancoding.com/sketch -->
    <title>ayo</title>
    <desc>Created with Sketch.</desc>
    <g id="Page-1" stroke="none" stroke-width="1" fill="none" fill-rule="evenodd">
        <g id="Design" transform="translate(-80.000000, -80.000000)" fill="#1C1C1C">
            <g id="Header" transform="translate(80.000000, 80.000000)">
                <path d="M0,29.8719772 C0,28.1194791 0.307408834,26.5528756 0.922235723,25.1721195 C1.53706261,23.7913634 2.3790955,22.6097726 3.44835966,21.6273115 C4.51762382,20.6448505 5.76062475,19.8482724 7.17739976,19.2375533 C8.59417476,18.6268343 10.1312189,18.1887164 11.7885784,17.9231863 L21.1713244,16.4893314 C22.2405886,16.3300134 22.9890623,16.0113822 23.4167679,15.5334282 C23.8444736,15.0554741 24.0583232,14.4713169 24.0583232,13.7809388 C24.0583232,12.6126068 23.563796,11.6036079 22.5747266,10.7539118 C21.5856573,9.90421576 20.1288067,9.47937411 18.2041312,9.47937411 C16.0656029,9.47937411 14.4216339,10.0768077 13.272175,11.2716927 C12.122716,12.4665778 11.4945327,13.8074843 11.3876063,15.2944523 L0.801944107,13.14367 C0.908870522,11.7098079 1.33656977,10.2228621 2.08505468,8.68278805 C2.83353959,7.14271397 3.9161533,5.735426 5.33292831,4.46088193 C6.74970332,3.18633787 8.52732831,2.12423374 10.6658566,1.2745377 C12.8043849,0.42484165 15.3438492,0 18.2843256,0 C21.4921181,0 24.2187008,0.411565349 26.4641555,1.23470839 C28.7096103,2.05785144 30.5406977,3.17306077 31.9574727,4.58036984 C33.3742477,5.98767892 34.3900334,7.62066401 35.0048603,9.47937411 C35.6196872,11.3380842 35.927096,13.2764242 35.927096,15.2944523 L35.927096,34.6514936 C35.927096,36.1915677 35.993924,37.5457504 36.127582,38.7140825 C36.26124,39.8824146 36.3547992,40.5727822 36.4082625,40.7852063 L25.4216282,40.7852063 C25.368165,40.6258883 25.2879714,40.1877703 25.181045,39.4708393 C25.0741185,38.7539082 25.0206561,37.7050804 25.0206561,36.3243243 C23.951392,38.0237164 22.4811758,39.3778992 20.6099635,40.3869132 C18.7387513,41.3959273 16.466599,41.9004267 13.7934386,41.9004267 C11.6014471,41.9004267 9.65006931,41.5685192 7.93924666,40.9046942 C6.22842401,40.2408691 4.78493905,39.3513569 3.60874848,38.2361309 C2.43255791,37.1209048 1.53706261,35.8463799 0.922235723,34.4125178 C0.307408834,32.9786557 0,31.4651573 0,29.8719772 Z M16.7606318,33.1379801 C17.6695064,33.1379801 18.5650017,33.0184934 19.4471446,32.7795164 C20.3292875,32.5405393 21.1044924,32.1156977 21.7727825,31.5049787 C22.4410726,30.8942596 22.9890623,30.0844052 23.4167679,29.0753912 C23.8444736,28.0663771 24.0583232,26.7918522 24.0583232,25.2517781 L24.0583232,23.4992888 L16.5200486,24.6941679 C15.2369316,24.9065919 14.1676835,25.3447098 13.3122722,26.0085349 C12.4568609,26.6723599 12.0291616,27.6946351 12.0291616,29.0753912 C12.0291616,30.1375112 12.3900328,31.0801286 13.1117861,31.9032717 C13.8335395,32.7264147 15.0498092,33.1379801 16.7606318,33.1379801 Z M48.9987849,56 L58.0607533,35.4480797 L41.3001215,1.19487909 L54.9331713,1.19487909 L64.636695,22.3840683 L73.4580802,1.19487909 L86.3693803,1.19487909 L61.8298906,56 L48.9987849,56 Z M110.828676,30.8278805 C112.004866,30.8278805 113.127577,30.628736 114.196841,30.230441 C115.266105,29.8321459 116.215063,29.2214361 117.043742,28.398293 C117.872422,27.57515 118.540702,26.5528748 119.048603,25.3314367 C119.556503,24.1099986 119.81045,22.6496055 119.81045,20.9502134 C119.81045,19.3039273 119.556503,17.8568104 119.048603,16.6088193 C118.540702,15.3608283 117.872422,14.3385531 117.043742,13.541963 C116.215063,12.745373 115.266105,12.1479394 114.196841,11.7496444 C113.127577,11.3513494 112.004866,11.1522048 110.828676,11.1522048 C109.705948,11.1522048 108.596603,11.3513494 107.500608,11.7496444 C106.404612,12.1479394 105.442288,12.745373 104.613609,13.541963 C103.784929,14.3385531 103.116649,15.3608283 102.608748,16.6088193 C102.100848,17.8568104 101.846902,19.3039273 101.846902,20.9502134 C101.846902,22.5964995 102.100848,24.0436163 102.608748,25.2916074 C103.116649,26.5395985 103.784929,27.57515 104.613609,28.398293 C105.442288,29.2214361 106.404612,29.8321459 107.500608,30.230441 C108.596603,30.628736 109.705948,30.8278805 110.828676,30.8278805 Z M110.828676,0 C113.822615,0 116.60266,0.517775761 119.168894,1.55334282 C121.735128,2.58890987 123.967184,4.03602674 125.865128,5.89473684 C127.763071,7.75344694 129.260019,9.957313 130.356015,12.5064011 C131.45201,15.0554893 132,17.8700652 132,20.9502134 C132,24.0303615 131.45201,26.8582138 130.356015,29.4338549 C129.260019,32.009496 127.763071,34.2266384 125.865128,36.0853485 C123.967184,37.9440586 121.735128,39.3911755 119.168894,40.4267425 C116.60266,41.4623096 113.822615,41.9800853 110.828676,41.9800853 C107.834736,41.9800853 105.054691,41.4623096 102.488457,40.4267425 C99.9222229,39.3911755 97.6901674,37.9440586 95.7922236,36.0853485 C93.8942797,34.2266384 92.3973323,32.009496 91.3013366,29.4338549 C90.2053408,26.8582138 89.6573512,24.0303615 89.6573512,20.9502134 C89.6573512,17.8700652 90.2053408,15.0554893 91.3013366,12.5064011 C92.3973323,9.957313 93.8942797,7.75344694 95.7922236,5.89473684 C97.6901674,4.03602674 99.9222229,2.58890987 102.488457,1.55334282 C105.054691,0.517775761 107.834736,0 110.828676,0 Z" id="ayo"></path>
            </g>
        </g>
    </g>
</svg>