<?xml version="1.0" encoding="UTF-8"?>
<svg width="170px" height="194px" viewBox="0 0 170 194" version="1.1" xmlns="http://www.w3.org/2000/svg" xmlns:xlink="http://www.w3.org/1999/xlink">
    <!-- Generator: Sketch 52.5 (67469) - http://www.bohemiancoding.com/sketch -->
    <title>Bobby</title>
    <desc>Created with Sketch.</desc>
    <defs>
        <path d="M2.44693638,7.39121075 C3.17199065,8.32518996 4.03117986,8.25727755 4.63305863,7.96858862 C5.2349374,7.67989968 5.88186909,7.21709196 6.97264237,9.74965097 C8.06341565,12.28221 9.15946857,9.4667452 8.61144211,9.04488288 C8.06341565,8.62302057 6.40032957,6.40252592 6.40032957,5.5760417 C6.40032957,4.74955748 6.97264237,2.88055612 6.97264237,2.88055612 C6.97264237,2.88055612 4.18851308,-0.574506979 3.31772473,1.65302457 C2.44693638,3.88055612 1.12851973,1.94077776 0.683185201,2.88055612 C0.237850668,3.82033448 -0.284044543,5.5760417 2.44693638,7.39121075 Z" id="path-1"></path>
    </defs>
    <g id="Page-1" stroke="none" stroke-width="1" fill="none" fill-rule="evenodd">
        <g id="Design" transform="translate(-79.000000, -2373.000000)">
            <g id="People" transform="translate(80.000000, 2361.000000)">
                <g id="Group-4">
                    <g id="Bobby">
                        <path d="M54.0585938,148.203125 C59.458313,150.786652 65.4179387,154.763463 71.9374708,160.133558 C81.7167689,168.188701 121.993113,184.364857 126.710937,173.364258 C129.856154,166.030525 130.422153,161.028002 128.408936,158.356689" id="Path-89" stroke="#000000" stroke-width="1.07999998" stroke-linecap="round" stroke-linejoin="round" fill-rule="nonzero"></path>
                        <path d="M56.4946289,143.652832 C67.8640872,137.253513 75.2054496,130.722584 78.518716,124.060044 C79.783952,118.153737 80.4401482,113.831733 80.4873047,111.094031" id="Path-91" stroke="#000000" stroke-linecap="round" stroke-linejoin="round" fill-rule="nonzero"></path>
                        <path d="M129.015137,141.404785 C127.095327,145.775678 126.135422,152.979374 126.135422,163.015873" id="Path-92" stroke="#000000" stroke-width="1.07999998" stroke-linecap="round" stroke-linejoin="round" fill-rule="nonzero"></path>
                        <path d="M83.423148,110.366471 L82.4031219,101.948598 C78.5886418,104.194528 74.5230857,100.534753 70.2064534,90.9692711 C64.6079249,74.8575564 70.2064534,67.5004746 75.0137401,68.533492 C77.6166785,68.533492 79.1623425,75.5365324 80.534668,79.2855338 C80.8443427,80.1315218 82.2209917,80.512979 82.5707879,78.7746489 C83.3284532,75.0093915 83.8359622,67.2998007 85.2506068,64.8475623 C85.9898614,63.5660897 87.3968095,63.4863417 88.4880371,63.0168457 C89.261273,62.6841643 89.3090166,61.554332 90.2549628,61.4320385 C91.7080523,61.2441806 93.2660123,61.1292952 94.625,60.5489691 C96.873422,56.9383343 98.2536623,52.1625445 103.101074,53.590332 C118.174794,63.795952 114.696206,53.5153342 129.34333,47.0296667 C143.990455,40.5439992 159.335196,50.019401 157.96249,64.8475623 C157.65804,68.1362756 157.640416,72.3066792 156.161781,76.9144431 C155.258003,79.7308222 156.480744,81.8651948 156.161781,85.0399546 C155.218911,94.4247073 152.498317,104.862816 148,116.354281 L140.710744,130.643194 C137.68422,137.309017 132.82578,140.330429 126.135422,139.707428 C121.356294,140.763839 120.032607,140.763839 116.371963,139.707428 C111.687962,138.355691 110.666348,137.302192 107.771432,134.891132 C99.8856783,128.323402 93.3178942,125.126262 92.0331822,121.749848" id="Path-93" stroke="#000000" stroke-linecap="round" stroke-linejoin="round" fill-rule="nonzero"></path>
                        <path d="M80.5974856,105.246477 C80.869211,103.449252 81.4509098,103.449252 82.342582,105.246477 C83.6800904,107.942314 84.4924508,128.73111 80.5974856,130.914092 C76.7025204,133.097074 76.1104969,133.819284 74.0915632,136.891132 C72.0726295,139.96298 76.1104969,143.573316 74.0915632,146.676185 C72.0726295,149.779055 70.0705907,152.779947 67.0034728,152.043231 C63.9363549,151.306515 56.4322289,147.441449 53.7726991,147.441449 C51.1131693,147.441449 55.3594064,143.646799 56.6314473,142.499736 C58.8284808,142.499736 80.3947475,127.007273 79.1670556,118.018718 C80.1206756,113.435839 80.5974856,109.178425 80.5974856,105.246477 Z" id="Path-94" fill-opacity="0.0992697011" fill="#000000" fill-rule="nonzero"></path>
                        <path d="M102.928711,147.632227 C106.141235,158.518141 107.747498,165.050355 107.747498,167.228867 C107.747498,170.496636 112.840589,176.263913 115.554323,171.74639 C118.268057,167.228867 119.628092,150.824586 122.881757,147.633017 C125.050867,145.505305 125.733673,142.872121 124.930176,139.733465 C116.147949,141.22691 109.689453,138.906576 105.554688,132.772461 C105.554687,138.013188 104.679362,142.966443 102.928711,147.632227 Z" id="Path-95" fill-opacity="0.118234828" fill="#000000" fill-rule="nonzero"></path>
                        <path d="M127.361002,167.038871 C127.361002,165.94903 123.438583,164.701212 121.694894,167.038871 C119.951206,169.37653 123.413945,153.766598 125.021419,152.917214 C126.628892,152.067831 128.586582,147.011174 127.361002,145.881698 C126.592974,145.173895 120.436183,160.124456 113.036621,168.657617 C108.628341,173.741237 101.007092,174.031649 101.460504,174.309399 C102.122164,174.714715 112.283366,179.263216 119.090977,177.299828 C124.778912,175.659366 127.361002,167.534963 127.361002,167.038871 Z" id="Path-96" fill-opacity="0.0562726449" fill="#000000" fill-rule="nonzero"></path>
                        <g id="Group-4" transform="translate(102.399261, 78.616726)" fill-rule="nonzero">
                            <g id="Group-11">
                                <path d="M17.5797878,2.88809785 C13.11908,0.0235073368 7.25915074,-0.328154229 0,1.83311315" id="Path-18" stroke="#000000" stroke-linecap="round" stroke-linejoin="round"></path>
                                <path d="M6.46016547,0.337534752 C6.1955225,1.16689207 6.25026084,3.39096338 8.42348699,4.97649759 C12.7675734,7.08017965 16.017331,4.10213389 15.3313299,2.31298972 C12.1927968,4.78506124e-14 7.98844972,0.549007265 6.46016547,0.337534752 Z" id="Path-20" fill="#000000"></path>
                            </g>
                            <g id="Group-11" transform="translate(45.284343, 4.441158) scale(-1, 1) translate(-45.284343, -4.441158) translate(36.784343, 1.441158)">
                                <path d="M16.605555,2.81476108 C10.3626416,-0.116918655 4.95099517,-0.508940571 0.370615594,1.63869533" id="Path-18" stroke="#000000" stroke-linecap="round" stroke-linejoin="round"></path>
                                <path d="M3.63350531,0.720578836 C3.36886234,1.54993615 3.42360067,3.77400746 5.59682682,5.35954167 C9.94091325,7.46322373 12.4394291,2.50972301 11.7534281,0.720578836 C8.57081091,0.151253207 5.16178956,0.932051349 3.63350531,0.720578836 Z" id="Path-20" fill="#000000"></path>
                            </g>
                            <path d="M4.94068556,7.1610479 C10.8895474,7.87013313 15.3274941,7.67180976 18.2545256,6.56607778 C22.6450728,4.90747982 21.4951311,7.69041001 20.6683397,10.9222011 C19.8415483,14.1539922 19.8042389,19.2033665 18.9140919,19.9284523 C18.0239448,20.6535381 17.9740592,19.7817109 16.8786518,22.4575151 C15.7832444,25.1333194 9.96830916,25.5653674 8.91343742,23.6318004 C7.85856568,21.6982333 5.98499802,20.6472719 8.41151981,18.990785 C10.8380416,17.3342981 12.7681682,18.0470192 13.3903402,15.0103024 C14.0125121,11.9735857 13.6337861,9.41813445 11.5423453,9.41813445 C9.45090461,9.41813445 9.04754024,11.6115931 6.9941129,10.4181344 C5.62516134,9.62249531 4.94068556,8.5367998 4.94068556,7.1610479 Z" id="Path-115" fill-opacity="0.0715862772" fill="#000000"></path>
                            <path d="M2.39123362,29.3609968 C4.0140671,31.003955 7.82761152,35.4053078 7.82761152,41.1456346 C7.87876551,42.1589653 8.97349281,42.1589653 8.97349281,40.8811321 C9.61723655,36.5187142 3.95793982,28.383274 2.39123362,28.383274 C0.824527427,28.383274 2.00442896,28.7839322 2.39123362,29.3609968 Z" id="Path-88" fill-opacity="0.0686424366" fill="#000000" transform="translate(5.312511, 35.129356) scale(-1, 1) translate(-5.312511, -35.129356) "></path>
                            <path d="M21.3089723,22.5612533 C21.9167174,22.8969136 23.0591138,23.3605282 24.7361616,23.9520972 C27.2517332,24.8394506 27.9440698,23.2665832 27.9440698,21.35807 C27.9440698,19.4495569 26.3460433,12.334877 26.3460433,11.4115767 C26.3460433,10.4882765 25.7714633,9.56497627 24.7361616,10.4882765 C23.7008598,11.4115767 24.5637641,15.3275351 23.7008598,17.1315122 C22.8379556,18.9354892 21.897476,19.8822825 21.3089723,20.746788 C20.9166365,21.323125 20.9166365,21.9279467 21.3089723,22.5612533 Z" id="Path-116" fill-opacity="0.0715862772" fill="#000000"></path>
                        </g>
                        <path d="M118.008651,131.443345 C119.13075,131.796181 119.986638,131.796181 120.576315,131.443345 C121.900096,130.914092 123.517778,130.914092 125.640192,131.443345 C127.244498,131.937041 131.154246,130.48971 133.021605,131.443345 C134.888964,132.396981 134.888964,132.396981 135.650738,133.978094 C136.412513,135.559208 135.650738,134.807393 135.650738,136.205626 C135.650738,137.603859 137.458233,136.729381 139.764948,131.937041 C141.420995,127.904544 143.224519,127.904544 143.224519,126.607643 C142.379812,125.846107 138.40143,125.722048 136.292038,127.904544 C134.182647,130.087039 126.663738,129.580382 125.640192,129.017078 C124.616646,128.453774 120.333804,126.792009 118.930124,127.904544 C117.526444,129.017078 116.787999,130.384839 117.398325,130.914092" id="Path-97" fill-opacity="0.156136775" fill="#000000" fill-rule="nonzero"></path>
                        <path d="M118.379804,118.554779 C123.325813,119.636383 126.883141,120.225233 129.051789,120.321332 C131.623526,120.435292 134.856914,120.143723 138.751953,119.446624" id="Path-99" stroke="#000000" stroke-width="1.07999998" stroke-linecap="round" stroke-linejoin="round" fill-rule="nonzero"></path>
                        <path d="M117.182505,120.060044 C129.858369,121.567349 137.370962,121.758401 139.720284,120.6332 C143.244266,118.945399 129.17051,121.17469 125.612034,120.060044 C123.239717,119.316947 120.429874,119.316947 117.182505,120.060044 Z" id="Path-100" fill-opacity="0.162279212" fill="#000000" fill-rule="nonzero"></path>
                        <path d="M123.982495,100.798584 C123.292114,102.538877 123.292114,103.950404 123.982495,105.033164 C124.754315,105.883322 126.5911,106.690395 129.492853,107.454383 C131.514648,107.986692 133.56289,108.403423 135.925049,106.918213 C136.676891,106.445491 137.374354,104.713019 137.020703,102.83435 C136.81543,101.743896 136.673105,100.619745 136.574585,99.6262887" id="Path-101" stroke="#000000" stroke-width="1.07999998" stroke-linecap="round" stroke-linejoin="round" fill-rule="nonzero"></path>
                        <path d="M148.585036,117.039363 C148.109005,110.950466 146.655499,107.721065 144.224519,107.351158 C140.578049,106.796299 138.986414,103.68458 138.986414,103.291569 C138.986414,102.898558 137.014952,99.3460006 136.068534,93.5018301 C135.437588,89.6057165 135.206898,85.4384398 135.376465,81 C140.556433,87.6231477 144.800586,90.8640007 148.108925,90.722559 C153.071433,90.5103964 154.229082,92.839761 154.229082,94.0619676 C154.229082,95.2841741 153.79988,97.1111684 153.79988,99.0196815 C153.79988,100.292024 152.211188,106.058391 149.033805,116.318784 L148.585036,117.039363 Z" id="Path-102" fill-opacity="0.0494791667" fill="#000000" fill-rule="nonzero" opacity="0.908226376"></path>
                        <path d="M86.262397,86 C85.1402663,86.509497 84.7662228,87.0202474 85.1402663,87.5322513 C85.7013317,88.3002572 86.6244815,88.3438335 87.0219561,87.5322513 C87.2869392,86.9911965 87.0337528,86.4804461 86.262397,86 Z" id="Path-33" fill="#000000" fill-rule="nonzero"></path>
                        <path d="M135,81 C136.330087,85.8387564 136.662608,89.3462619 135.997565,91.5225163" id="Path-23" stroke="#000000" stroke-linecap="round" stroke-linejoin="round" fill-rule="nonzero" transform="translate(135.665043, 86.261258) scale(-1, 1) rotate(8.000000) translate(-135.665043, -86.261258) "></path>
                        <path d="M94.4970703,75.9731445 C101.5857,72.3682519 110.785393,73.1448304 122.096147,78.3028801 C125.488022,78.7731752 125.399761,75.4008643 124.732446,74.2857249 C123.036346,71.4513971 112.186595,68.2583618 105.280147,69.533492 C97.4841155,70.3718216 93.8897567,72.5183725 94.4970703,75.9731445 Z" id="Path-105" fill="#000000" fill-rule="nonzero"></path>
                        <path d="M134.429734,78.93896 C134.964737,76.4165822 143.786409,70.1562578 150.917341,71.2132006 C155.671295,71.9178292 157.481155,73.4183864 156.346921,75.7148723 C153.503987,74.2041111 150.384776,74.2516725 146.98929,75.8575564 C141.89606,78.2663824 135.543386,79.9906251 134.429734,78.93896 Z" id="Path-106" fill="#000000" fill-rule="nonzero"></path>
                        <path d="M74.5984085,68.533492 C73.4773309,62.5774686 72.2821461,53.4009273 73.2611277,44.7096605 C73.6587547,41.1795812 71.4941406,39.2314453 75.6806645,34.6078933 C77.0231556,33.1252605 77.2516566,31.2263818 78.3011949,29.7321227 C81.4160719,25.2973792 84.232473,22.2852898 87.3842274,20.1598598 C89.3933937,18.8049502 89.5186763,16.0298563 95.0141602,16.7335561 C100.509644,17.4372559 100.509644,14.9909521 104.776367,14.4488038 C110.041675,13.779771 115.627071,13.1493371 119.93324,14.4488038 C124.803223,15.9184119 132.351844,15.9184119 134.429734,16.7335561 C136.217537,17.4349007 141.005607,19.5496711 148.793945,23.0778672 L155.680664,30.3662109 C156.149089,30.3662109 157.331543,31.1622721 159.228027,32.7543945 C162.072754,35.1425781 159.684872,37.1574547 159.982422,38.0263672 C161.906016,43.6437017 161.883789,49.0530781 161.883789,52.343435 C161.883789,53.5501179 162.004232,53.6102354 161.883789,54.6708984 C161.76496,55.7173458 161.576066,57.7182617 163,59.5327148 C164.423934,61.347168 160.688999,60.6505583 160.387585,61.5015689 C159.619033,63.6714921 158.708099,65.2408575 158.048273,66.2155362 C157.40626,67.1639011 154.838867,64.8713756 155.680664,60.5489691 C156.522461,56.2265625 155.194451,55.5902257 153.597656,53.5153342 C151.119691,50.2954417 141.84668,56.9921875 134.429734,53.5153342 C125.564118,52.1114915 124.137207,62.5864753 121.665039,57.7182617 C120,54.4394531 115.777506,57.4132268 113.484863,57.7182617 C111.285478,58.0108888 108.609163,56.854168 105.878906,55.2568359 C99.3549805,50.8842855 96.957771,54.0940087 95.0141602,60.5489595 C92.1458595,60.8332656 89.6710086,62.1029935 87.6083984,62.8601074 C87.1939466,63.0122386 86.6119967,63.0122386 85.8625488,62.8601074 C83.8700396,73.4647425 83.2144406,79.9398846 83.895752,82.2855338 C84.2935749,83.6551764 83.1134266,84.121788 80.3553072,83.6853686 L80.3553109,83.6853457 C79.9521201,83.6215486 79.628184,83.3190858 79.5369257,82.9212104 C77.3369102,73.3293981 75.6907378,68.533492 74.5984085,68.533492 Z" id="Path-107" fill="#000000" fill-rule="nonzero"></path>
                        <path d="M84.4481906,91.8255813 C86.1154481,91.8255813 92.496771,98.6273186 92.496771,108.033164 C92.496771,117.439009 91.8635166,116.260129 93.6864495,118.881425 C95.5093823,121.502721 94.876128,122.6332 93.6864495,122.6332 C92.496771,122.6332 86.1154481,119.75821 86.1154481,110.726793 C86.1154481,101.695375 85.5101541,98.8027289 84.4481906,97.9568932 C83.386227,97.1110575 82.780933,91.8255813 84.4481906,91.8255813 Z" id="Path-108" fill-opacity="0.107620018" fill="#000000" fill-rule="nonzero"></path>
                        <path d="M77.1636088,81.8726447 C74.7045636,73.5289006 73.0346302,70.3145164 72.1538086,72.2294922 C71.272987,74.144468 70.658485,76.4964818 70.3103027,79.2855338" id="Path-109" stroke="#000000" stroke-width="1.07999998" stroke-linecap="round" stroke-linejoin="round" fill-rule="nonzero"></path>
                        <path d="M75.4052103,95.1227807 C76.3062685,92.885242 76.3062685,91.3700531 75.4052103,90.5772139 C74.0536228,89.387955 71.0395791,89.1007527 71.0395791,85.0399546" id="Path-110" stroke="#000000" stroke-width="1.07999998" stroke-linecap="round" stroke-linejoin="round" fill-rule="nonzero"></path>
                        <g id="Group-10" transform="translate(70.763279, 81.219620)">
                            <mask id="mask-2" fill="white">
                                <use xlink:href="#path-1"></use>
                            </mask>
                            <use id="Path-111" fill-opacity="0.111328125" fill="#000000" fill-rule="nonzero" xlink:href="#path-1"></use>
                            <path d="M2.33465607,1.51524365 C2.4841285,4.22244235 2.81181806,5.5760417 3.31772473,5.5760417 C4.07658475,5.5760417 6.40032957,6.68646494 6.40032957,7.46967221 C6.40032957,8.25287949 7.82723983,8.88835635 7.82723983,9.74965097 C7.82723983,10.6109456 6.40032957,11.4622713 6.40032957,10.6059612 C6.40032957,9.74965097 6.41758458,8.27434204 5.23247767,8.27434204 C4.04737075,8.27434204 0.622997324,7.45967801 0.622997324,6.51785985 C0.622997324,5.5760417 -0.942406308,2.16173651 -0.296363699,2.16173651 C0.134331374,2.16173651 1.01133796,1.94623889 2.33465607,1.51524365 Z" id="Path-112" fill-opacity="0.283118207" fill="#000000" fill-rule="nonzero" mask="url(#mask-2)"></path>
                        </g>
                        <path d="M72.0879861,73.1768483 C72.5451199,72.269728 73.4281252,73.22294 73.4281252,74.5402482 C73.4281252,75.8575564 72.412693,76.1908422 72.0879861,79.1906738 C71.7632792,82.1905054 69.1374627,80.137207 69.9487305,80.137207 C70.7599982,80.137207 70.8508469,75.6317842 72.0879861,73.1768483 Z" id="Path-113" fill-opacity="0.187471694" fill="#000000" fill-rule="nonzero"></path>
                        <path d="M77.1636088,81.8726447 C75.4876533,79.9562462 73.8116977,80.179362 72.1357422,82.5419922" id="Path-114" stroke="#000000" stroke-linecap="round" stroke-linejoin="round" fill-rule="nonzero"></path>
                        <path d="M37.6513672,155.044383 C12.6269082,172.273124 0.114678702,184.985787 0.114678702,193.182372" id="Path-117" stroke="#000000" stroke-width="1.07999998" stroke-linecap="round" stroke-linejoin="round" fill-rule="nonzero"></path>
                        <path d="M135.510498,159.058105 C152.635244,172.700381 163.549598,182.592324 168.253561,188.733937" id="Path-118" stroke="#000000" stroke-width="1.07999998" stroke-linecap="round" stroke-linejoin="round" fill-rule="nonzero"></path>
                        <path d="M0.114678702,193.182372 C19.8685042,193.385767 33.306709,196.764602 40.4292931,203.318876" id="Path-119" stroke="#000000" stroke-width="1.07999998" fill-rule="nonzero"></path>
                        <path d="M39.6486106,152.917214 C50.6832894,154.551652 56.8287884,157.313871 58.0851077,161.203871 C59.9695866,167.038871 61.3591874,179.21412 63.102172,179.21412 C64.8451566,179.21412 65.6510331,177.758888 69.0395791,184.437613 C72.4281252,191.116337 72.810371,201.361759 64.5832866,203.318876 C56.3562021,205.275993 49.9593923,207.655169 45.1943427,204.271827 C40.4292931,200.888484 39.234687,196.513641 29.9150694,194.848006 C20.5954518,193.182372 8.5642119,189.528812 5.51821256,191.355592 C2.47221321,193.182372 -0.956031953,189.100968 8.27136796,179.21412 C14.4229679,172.622888 24.8820488,163.857252 39.6486106,152.917214 Z" id="Path-120" fill-opacity="0.0276834239" fill="#000000" fill-rule="nonzero"></path>
                        <path d="M48.9111328,148.141602 C49.9146306,147.995458 52.9567042,149.451432 58.0373535,152.509521 C62.2430331,155.040959 67.3327917,158.456487 73.3066293,162.756106 L73.3066211,162.756118 C73.8795986,163.168513 74.0097759,163.967316 73.5973802,164.540294 C73.3297985,164.912068 72.8837413,165.112245 72.4281252,165.065019 C65.9606336,161.378694 60.6019421,158.611741 56.3520508,156.76416 C52.1021594,154.916579 47.376248,153.299392 42.1743164,151.912598 L48.9111328,148.141602 Z" id="Path-121" fill-opacity="0.0869282156" fill="#000000" fill-rule="nonzero"></path>
                        <path d="M113.602539,50.0273438 C121.993164,57.2578125 127.415039,52.343435 136.18457,54.6113281 C142.030924,56.1232569 147.082031,57.0054183 151.337891,57.2578125 C154.023437,60.3138021 156.070638,60.3138021 157.479492,57.2578125 C158.888346,54.2018229 160.317708,51.295953 161.767578,48.5402027 L127.415039,40.5019531 C112.612956,42.031901 108.008789,45.2070313 113.602539,50.0273438 Z" id="Path-5" fill="#000000"></path>
                        <path d="M86.0794139,60.5489691 C89.0105662,63.4868259 87.3923562,65.3902237 89.1391602,65.3902237 C90.2114209,65.3902237 90.3223217,68.3186721 88.4345703,68.7687634 C86.1315288,69.3178711 87.922541,70.9150293 87.3183594,71.6083984 C86.1315288,72.9704254 83.5683594,72.9704254 83.5683594,73.9338379 C83.5683594,76.886681 83.1482616,57.6111122 86.0794139,60.5489691 Z" id="Path-17" fill="#000000"></path>
                        <path d="M114.179565,116.681502 C115.287884,116.851561 116.069822,116.906655 116.525379,116.846786 C121.355953,116.211949 124.453532,115.894531 125.818115,115.894531 C127.633104,115.894531 128.191395,117.384758 129.899902,117.463867 C131.60841,117.542976 132.940025,116.581302 133.65332,116.257324 C134.179197,116.018472 135.740583,116.186821 138.33748,116.762374 L138.331577,116.789009 C139.061238,116.950724 139.814612,116.975325 140.553269,116.861557 L140.64917,116.846786" id="Path-19" stroke="#000000" stroke-linecap="round" stroke-linejoin="round"></path>
                        <path d="M115.33374,119.973145 C117.787975,121.635796 119.874157,122.758355 121.592285,123.34082 C123.098592,123.851476 124.339672,124.501618 126.292725,124.784549 C127.411786,124.946663 128.317692,124.757926 129.256836,124.784549 C130.403923,124.817066 131.541603,125.035713 132.44188,124.921215 C136.035494,124.464177 137.75747,123.077347 138.363281,122.688232" id="Path-22" stroke="#000000" stroke-linecap="round" stroke-linejoin="round"></path>
                        <path d="M50.9584961,146.501953 L41.5996094,152.382813 C51.9375,155.141276 58.3193359,157.345703 60.7451172,158.996094 C64.3837891,161.47168 69.6049716,165.749804 74.3693803,168.657617 C79.1337891,171.56543 102.435547,183.709961 120,183.709961" id="Path-25" stroke="#000000" stroke-linecap="round" stroke-linejoin="round"></path>
                        <path d="M130.035156,153.420898 L133.330078,158.289062 C133.330078,168.640161 132.231771,174.903182 130.035156,177.078125" id="Path-30" stroke="#000000" stroke-linecap="round" stroke-linejoin="round"></path>
                        <g id="Group-2" transform="translate(78.000000, 22.000000)">
                            <path d="M51.0392452,14.9450615 C52.7065027,14.9450615 54.7377032,18.5923636 58.5123436,31.749064 C60.9315938,40.1814832 58.9695411,43.0550378 52.6261857,40.3697278 L52.6261921,40.3697127 C52.1787774,40.1803102 51.9322419,39.6967224 52.0417858,39.2233796 C53.0847038,34.7168966 52.4097729,30.5014631 50.0169931,26.5770789 C49.2764642,25.3625417 51.9384195,22.7042744 51.0392452,21.0763734 C47.3052311,14.3161656 49.3719876,14.9450615 51.0392452,14.9450615 Z" id="Path-108" fill="#000000" fill-rule="nonzero" transform="translate(54.229276, 28.136102) rotate(-55.000000) translate(-54.229276, -28.136102) "></path>
                            <path d="M28,10 C35.4901243,21.25 34.5006263,10 38,10" id="Path-31" stroke-opacity="0.17" stroke="#FFFFFF" stroke-linecap="round" stroke-linejoin="round"></path>
                            <path d="M57,15 C63.4336169,17.5624652 61.8199114,21.0882001 61.8199114,25" id="Path-31" stroke-opacity="0.17" stroke="#FFFFFF" stroke-linecap="round" stroke-linejoin="round"></path>
                            <path d="M0,42 C2.94203567,34.2196573 5.13083544,31.4837923 6.5663993,33.792405 C8.71974508,37.2553241 7.48812218,37.0278827 11,37.0278827" id="Path-31" stroke-opacity="0.17" stroke="#FFFFFF" stroke-linecap="round" stroke-linejoin="round"></path>
                            <path d="M40.9416489,1.12715606 C56.4453826,-1.40776976 55.859302,0.74660799 59.3249296,3.51128971 C62.7905572,6.27597142 61.0829555,5.05816791 62.2973015,7.02422406 C63.5116474,8.99028021 66.6141532,11 63.9503747,11 C61.2865963,11 55.3576525,7.02422406 49.9565269,7.02422406 C44.5554014,7.02422406 25.4379152,3.66208188 40.9416489,1.12715606 Z" id="Path-48" fill="#1B1B1B"></path>
                            <path d="M15.0245133,3.29644281 C1.38100722,10.4940076 8.14920004,18.1476257 4.1948309,22.9782878 C0.240461764,27.8089498 7.07608305,32.7486363 10.5680172,28.2002699 C13.2308548,24.7318308 19.6092397,28.7764915 21.3037222,24.9993325 C21.8313133,23.8232827 23.177373,13.2262159 19.6526889,10.9179377 C14.9567319,7.84260517 28.6680193,-3.90112193 15.0245133,3.29644281 Z" id="Path-45" fill="#1B1B1B"></path>
                            <path d="M63.3550515,22.0841819 C60.187491,20.5058205 60.1582742,8.1115257 66.1826882,12.2814476 C72.2071023,16.4513694 71.6690164,18.5392601 78.741282,18.5392601 C85.8135476,18.5392601 66.522612,23.6625434 63.3550515,22.0841819 Z" id="Path-47" fill="#1B1B1B" transform="translate(70.764443, 16.907391) rotate(-113.000000) translate(-70.764443, -16.907391) "></path>
                        </g>
                        <g id="Group-14" transform="translate(70.000000, 19.000000)" fill="#000000">
                            <path d="M7.20019531,12.9614258 L15.9150391,9.36621094 L11.5576172,19.0117188 C0.690104167,23.3855794 -2.44824219,23.7718099 2.14257812,20.1704102 C6.73339844,16.5690104 8.41927083,14.1660156 7.20019531,12.9614258 Z" id="Path-46"></path>
                            <path d="M12.4145508,8.02197266 L21.1293945,4.42675781 L16.7719727,14.0722656 C5.90445964,18.4461263 2.76611328,18.8323568 7.35693359,15.230957 C11.9477539,11.6295573 13.6336263,9.2265625 12.4145508,8.02197266 Z" id="Path-46" transform="translate(13.220627, 11.048574) rotate(136.000000) translate(-13.220627, -11.048574) "></path>
                        </g>
                        <g id="Group-14" transform="translate(118.992519, 17.440528) rotate(65.000000) translate(-118.992519, -17.440528) translate(106.492519, 4.440528)" fill="#000000">
                            <path d="M7.77757705,14.8677336 L16.4924208,11.2725187 L12.1349989,20.9180265 C1.2674859,25.2918872 -1.87086045,25.6781177 2.71995986,22.0767179 C7.31078018,18.4753182 8.99665257,16.0723234 7.77757705,14.8677336 Z" id="Path-46" transform="translate(8.583653, 17.894335) rotate(-5.000000) translate(-8.583653, -17.894335) "></path>
                            <path d="M13.837169,8.11566487 L22.5520128,4.52045003 L18.1945909,14.1659578 C7.3270779,18.5398185 4.18873154,18.926049 8.77955186,15.3246492 C13.3703722,11.7232495 15.0562446,9.32025471 13.837169,8.11566487 Z" id="Path-46" transform="translate(14.643245, 11.142267) rotate(136.000000) translate(-14.643245, -11.142267) "></path>
                        </g>
                    </g>
                </g>
            </g>
        </g>
    </g>
</svg>