<?xml version="1.0" encoding="UTF-8"?>
<svg width="240px" height="186px" viewBox="0 0 240 186" version="1.1" xmlns="http://www.w3.org/2000/svg" xmlns:xlink="http://www.w3.org/1999/xlink">
    <!-- Generator: Sketch 52.5 (67469) - http://www.bohemiancoding.com/sketch -->
    <title>Group 3</title>
    <desc>Created with Sketch.</desc>
    <g id="Page-1" stroke="none" stroke-width="1" fill="none" fill-rule="evenodd">
        <g id="Design" transform="translate(-746.000000, -2381.000000)">
            <g id="People" transform="translate(80.000000, 2361.000000)">
                <g id="Group-3" transform="translate(667.000000, 21.000000)">
                    <g id="Group-9">
                        <g id="Group-8">
                            <g id="Group-6">
                                <g id="Group-5">
                                    <path d="M75.610294,115.729381 C43.1506969,127.414351 24.039387,135.853306 18.2763642,141.046246 C9.63183004,148.835656 4.48677246e-15,175.308911 0,176.72552" id="Path-43" stroke="#000000" stroke-linecap="round" stroke-linejoin="round" fill-rule="nonzero"></path>
                                    <path d="M161.988922,110.216495 C177.201279,113.189469 192.105457,118.305368 206.701457,125.564191 C209.620345,127.292586 213.973867,130.891068 219.762022,136.359637 C231.857322,153.289042 237.904972,165.099116 237.904972,171.789858" id="Path-44" stroke="#000000" stroke-linecap="round" stroke-linejoin="round" fill-rule="nonzero"></path>
                                    <g id="Me" transform="translate(59.679758, 0.000000)">
                                        <g id="Hat" transform="translate(3.355488, 0.000000)" fill-rule="nonzero" stroke="#000000" stroke-linecap="round" stroke-linejoin="round">
                                            <path d="M90.0261439,58.9638773 C90.0261439,58.9638773 90.9221268,51.3874034 89.125948,46.5589461 C87.3297693,41.7304889 90.0261439,28.5554577 81.1847503,20.4738543 C72.3433566,12.3922509 75.8921788,10.5508391 63.0221394,5.60089803 C53.8048612,3.28029861 54.2614965,2.11765816 44.1929247,0.510279075 C39.984771,-0.264755917 39.170927,0.172277706 34.9026034,0.510279075 C27.0673569,2.91139961 20.2594011,6.50676043 14.4787359,11.2963615 C4.89738488,20.4620567 0.577131555,32.0738815 1.51797593,46.1318359 C0.638314064,47.2231209 0.500732996,48.5536454 1.10523272,50.1234093 C2.19439331,52.5051798 2.61999295,54.6824486 2.38203164,56.6552155 C2.05816213,59.8591454 1.46989867,58.9638773 0.198483132,62.9866553 C0.198483132,63.6455707 18.3643709,40.8789314 28.3966634,39.844797 C42.7319203,37.9656918 57.4280983,50.4089783 68.4429758,54.1681902 C74.1914967,55.6475314 81.1847503,55.6475314 83.2472896,48.4614912 C84.6362034,45.3487889 89.125948,54.1681902 90.0261439,58.9638773 Z" id="Path"></path>
                                            <path d="M38.5707103,1.54543045e-13 C35.0469748,6.7646283 33.8368652,15.9446959 34.9403815,27.5402027" id="Path-2"></path>
                                            <path d="M67.2228752,7.36621094 C67.2228752,7.36621094 70.9672377,8.42120459 73.6739894,12.4858801 C78.0455664,17.6394991 80.5949616,25.6605288 81.3221751,36.5489691" id="Path-3"></path>
                                            <path d="M78.7602101,44.4180745 C59.8299772,35.1441302 45.3544099,30.8024802 35.3335084,31.3931243 C19.7497738,31.7793447 4.34111633,46.850601 2.47588982,54.0783062" id="Path-4"></path>
                                        </g>
                                        <g id="Face" transform="translate(0.000000, 39.548969)">
                                            <path d="M93.2952641,18.7365647 C94.4014715,26.5393612 94.4014715,32.4670511 93.2952641,36.5196344 C92.4227693,39.7160136 91.0332082,42.8772112 88.3930194,42.8772112 C86.7801957,42.8772112 85.8202417,42.9453345 85.8202417,40.7877008" id="Path-6" stroke="#000000" stroke-linecap="round" stroke-linejoin="round" fill-rule="nonzero"></path>
                                            <path d="M86.1156986,37.3159532 C84.6952343,53.6329702 83.9850022,63.9611791 83.9850022,68.3005799 C83.9850022,74.8096811 87.338384,68.445237 85.0503504,85.0330521 C82.7623167,101.620867 55.7672064,108.363105 51.1220457,108.363105 C46.4768851,108.363105 29.9611224,110.440737 25.7705068,92.218156 C21.5798913,73.9955753 27.8887658,84.3380895 26.5150659,76.1804124 C22.3244504,66.1641959 14.712094,50.5278874 14.712094,43.8933231 C13.1614446,42.8772112 13.1614446,42.8772112 12.5826135,41.0694668" id="Path-7" stroke="#000000" stroke-linecap="round" stroke-linejoin="round" fill-rule="nonzero"></path>
                                            <path d="M49.5510806,3.6854971 C47.0686371,4.91063502 46.7362842,9.64874512 43.7384399,9.64874512 C40.7405956,9.64874512 42.891528,14.4322603 36.8282369,14.4322603 C30.7649458,14.4322603 34.8830027,19.4503167 30.3291255,19.4503167 C27.08125,19.4503167 27.7092899,17.6168475 27.4281822,17.0589639 C21.070564,21.5694907 16.6791247,23.4084034 14.2538643,22.5757022 C10.7570035,22.1406881 14.4008404,26.4398992 12.159479,37.775585 C11.5859403,40.676257 10.2294431,28.5094088 7.23563573,28.5094088 C3.21230385,28.5094088 -0.433782962,24.9449534 0.31950927,22.4363647 C1.0728015,19.9277761 0.31950927,25.1866054 7.99553466,23.5757022 C7.36216583,22.2946002 7.50039554,20.2262325 8.69211162,17.714308 C10.9355449,12.9855517 16.9124221,6.68487754 28.5033472,1.1053278 C30.7318371,1.1053278 32.3632109,-0.00375775691 34.0414331,-2.02894108e-13 C42.3809079,0.0186731642 44.9125381,0.978026715 49.5510806,3.6854971 Z" id="Path-8" fill="#000000" fill-rule="nonzero"></path>
                                            <path d="M80.4418237,15.3401911 C79.6558983,17.3254851 82.5930911,19.8549654 82.0161325,21.6292385 C81.4391738,23.4035116 77.6058739,29.799709 84.3585135,31.2968398 C85.1156986,30.0791922 79.7623804,27.6717341 83.1340044,25.0991362 C84.7849726,23.8394236 85.7344329,24.7144051 86.8860251,25.6031841 C88.0862264,26.5294786 88.5059838,27.47076 91.1682638,26.0260652 C92.5329184,25.2855309 90.3174533,23.5917063 92.6051024,22.6104724 C94.8927515,21.6292385 92.729441,17.1193495 92.1630151,16.2476618 C91.5965892,15.375974 89.7423401,7.09096629 86.8895677,8.33763893 C85.4332445,10.0641612 85.6953071,12.3997664 80.4418237,15.3401911 Z" id="Path-9" fill="#000000" fill-rule="nonzero"></path>
                                            <path d="M83.4552515,23.4035116 C84.3723365,25.6294271 84.9887102,27.2736849 85.3043726,28.3362848 C85.6200349,29.3988848 85.8148591,30.3789939 85.8888452,31.2766122" id="Line-3" stroke="#000000" stroke-linecap="round" stroke-linejoin="round"></path>
                                            <path d="M87.7023933,28.502089 C88.8031789,30.4235941 88.337867,32.970542 87.7023933,34.2602841 C87.1191151,35.6932788 88.0249494,34.9002711 89.1203516,33.2177546 C89.4368188,32.2880671 89.6237943,31.7778233 91.8270039,31.7778233 C93.6051024,29.6922419 92.5980737,27.8315556 91.8270039,27.2801325" id="Path-11" stroke="#000000" stroke-linecap="round" stroke-linejoin="round" fill-rule="nonzero"></path>
                                            <path d="M47.8578408,28.9145256 C59.0328156,25.2405163 65.8523965,23.4035116 68.3165833,23.4035116 C72.0128635,23.4035116 74.3609564,23.7836461 74.3609564,24.4072165 C74.3609564,25.0307869 72.6361661,25.4455642 71.8934927,25.4455642 C71.1508194,25.4455642 69.4812673,25.6393766 68.3165833,26.1590186 C67.1518992,26.6786606 54.6694636,30.0282448 50.0959254,30.0282448 C47.0468999,30.0282448 46.3008717,29.6570051 47.8578408,28.9145256 Z" id="Path-12" fill="#000000" fill-rule="nonzero"></path>
                                            <path d="M34.8890279,32.3165422 C36.3409936,32.4719666 38.0126182,32.4719666 36.9714215,30.0282448 C34.1990181,28.9182364 21.6267033,25.5106365 17.305014,25.5106365 C12.9833247,25.5106365 14.5265405,30.4099499 17.305014,29.7068903 C20.0834875,29.0038307 23.7897364,30.0282448 25.927175,30.0282448 C28.0646137,30.0282448 33.4370621,32.1611177 34.8890279,32.3165422 Z" id="Path-13" fill="#000000" fill-rule="nonzero"></path>
                                            <g id="Group-4" transform="translate(19.653575, 32.077320)" fill-rule="nonzero">
                                                <path d="M16.1176261,2.90203669 L11.3165813,1.21952018 C8.6334701,-0.218312057 4.87828471,-0.218312057 0.0510251448,1.21952018" id="Path-18" stroke="#000000" stroke-linecap="round" stroke-linejoin="round"></path>
                                                <path d="M4.75767937,0.221918353 C4.58814574,0.753441342 3.26164004,3.22148279 6.05058283,5.31719117 C6.75894867,5.84948184 8.4217545,5.4180228 9.37641578,5.18835357 C11.2363268,4.74090236 11.8714293,3.40492207 11.2817235,1.18041271 C9.76616475,0.629667285 8.71072621,0.310169166 8.11540783,0.221918353 C6.70409713,0.012703717 5.73671756,0.357447998 4.75767937,0.221918353 Z" id="Path-20" fill="#000000"></path>
                                            </g>
                                            <g id="Group-4" transform="translate(60.047835, 33.639175) scale(-1, 1) translate(-60.047835, -33.639175) translate(51.547835, 30.639175)" fill-rule="nonzero">
                                                <path d="M16.1176261,2.90203669 L11.3165813,1.21952018 C8.6334701,-0.218312057 4.87828471,-0.218312057 0.0510251448,1.21952018" id="Path-18" stroke="#000000" stroke-linecap="round" stroke-linejoin="round"></path>
                                                <path d="M4.05229188,0.223608759 C3.8786186,0.768110416 3.0099542,4.31029765 5.37676531,5.44329736 C6.2406057,5.85682039 7.80583598,5.54659109 8.78380806,5.31131382 C10.6891342,4.85293679 11.3397446,3.48433469 10.7356393,1.20550752 C9.18307388,0.641314057 8.10186376,0.314014471 7.49200897,0.223608759 C6.04623705,0.00928554481 5.05523611,0.362447751 4.05229188,0.223608759 Z" id="Path-20" fill="#000000"></path>
                                            </g>
                                            <path d="M35.7712011,56.756101 C36.5746521,55.8985485 37.9438268,56.4093411 39.8787253,58.2884789 C42.781073,61.1071856 46.2002258,60.1259496 48.5085284,57.7219531 C49.4831127,56.7069661 50.9469463,56.7652097 52.2174585,56.4833796 C52.5284075,56.4144036 52.9121422,56.2782697 53.3686626,56.0749778 L53.3686572,56.0749656 C53.9555921,55.8135991 54.3812229,55.2861672 54.5127203,54.6572685 C54.8834894,52.8840301 54.4256531,51.5300839 53.1392114,50.5954298" id="Path-21" stroke="#000000" stroke-width="0.959999981" stroke-linecap="round" stroke-linejoin="round" fill-rule="nonzero"></path>
                                            <path d="M38.2580918,34.1039234 C39.5881784,38.9426798 39.9207001,42.4501852 39.2556568,44.6264397" id="Path-23" stroke="#000000" stroke-linecap="round" stroke-linejoin="round" fill-rule="nonzero"></path>
                                            <path d="M53.134028,47.347538 C52.8271584,47.0985493 52.3507453,45.9763385 53.134028,45.4263841 C53.9173108,44.8764296 54.317905,46.1116327 54.317905,46.386961 C54.317905,46.6622893 54.143062,47.793681 53.134028,47.347538 Z" id="Path-26" fill="#000000" fill-rule="nonzero"></path>
                                            <path d="M67.4971382,45.9054144 C67.3208908,45.9054144 66.8492008,46.4543155 67.0651799,46.8647625 C67.281159,47.2752094 67.8764329,46.9932685 68.0684794,46.5667876 C68.2605258,46.1403066 67.6733856,45.9054144 67.4971382,45.9054144 Z" id="Path-27" fill="#000000" fill-rule="nonzero"></path>
                                            <path d="M68.6901464,48.7134708 C68.6901464,49.050642 69.7314778,49.1951929 70.2700505,48.7134708 C70.8086233,48.2317486 70.5307937,47.0648438 70.2700505,47.0648438 C69.2522393,47.2608139 68.6901464,48.2263285 68.6901464,48.7134708 Z" id="Path-28" fill="#000000" fill-rule="nonzero"></path>
                                            <path d="M72.9212808,47.5227123 C73.2251073,47.3928575 73.5862753,47.3199173 73.6404018,46.7122639 C73.6945282,46.1046105 72.9264886,46.6610312 72.8154562,46.8993175 C72.7044239,47.1376038 72.6565,47.6589428 72.9212808,47.5227123 Z" id="Path-29" fill="#000000" fill-rule="nonzero"></path>
                                            <path d="M30.1993958,80.3122684 C35.8686866,87.0027753 40.7163874,90.244686 44.7424983,90.0380004 C45.4179414,90.0033256 52.001778,90.1553542 52.7072521,90.0380004 C58.2463568,89.1165842 61.6302518,85.7722057 64.7502065,81.8693218 C67.5555884,78.3599506 69.0992536,79.6000446 72.0390782,74.5455498" id="Path-32" stroke="#000000" stroke-width="0.959999981" stroke-linecap="round" stroke-linejoin="round" fill-rule="nonzero"></path>
                                            <path d="M32.0159377,50.1390922 C31.4222202,50.4086662 31.2243143,50.6789035 31.4222202,50.9498039 C31.719079,51.3561546 32.2075161,51.3792108 32.4178193,50.9498039 C32.5580214,50.6635327 32.4240609,50.3932954 32.0159377,50.1390922 Z" id="Path-33" fill="#000000" fill-rule="nonzero"></path>
                                            <path d="M30.1993958,80.8824702 C31.3480055,82.8828578 42.4930267,100.082072 58.0741047,92.6376148 C63.4260094,89.8933433 67.009659,82.7705028 67.009659,80.0622785 C63.1344903,84.1329974 58.2546675,90.083258 52.9538016,90.083258 C49.4224117,90.083258 45.8512798,90.8116834 42.4302166,90.083258 C41.0029573,89.7793608 39.6452995,88.81697 38.2580918,88.0891088 C34.8583676,86.3052898 33.0697788,82.9202438 30.1993958,80.8824702 Z" id="Path-34" fill-opacity="0.225033967" fill="#000000" fill-rule="nonzero"></path>
                                            <path d="M36.8471763,30.0282448 C38.3048447,35.2157095 39.1117285,38.8087583 39.2678279,40.8073914 C39.5133339,43.9507505 38.909006,46.4941587 38.1499559,48.2662744 C38.055146,48.4876224 36.7301586,49.6959217 36.0108789,50.8715065 C35.1941712,52.2063267 34.9652449,53.7479543 34.7214407,54.0792425 C32.4114604,57.2181103 32.5231585,55.2875626 32.7112697,54.4067106 C32.8177904,53.9079158 33.4878473,52.7295144 34.7214407,50.8715065 C37.1813599,45.2364338 38.0112461,42.2905475 37.2110992,42.0338475 C36.0108789,41.6487974 28.2580997,40.5058191 27.9535872,39.6247684 C27.6490748,38.7437178 32.0299814,39.5100727 34.2743855,37.8149162 C36.5187897,36.1197598 34.4840564,33.4636531 31.6618979,32.3018723 C28.8397395,31.1400914 34.9349037,28.6774097 35.7712011,29.6970316 C36.3287328,30.3767795 36.6873912,30.4871839 36.8471763,30.0282448 Z" id="Path-35" fill-opacity="0.225515172" fill="#000000" fill-rule="nonzero"></path>
                                            <path d="M88.6692964,31.9303218 C89.6701382,31.0715861 90.4061018,30.6422182 90.8771872,30.6422182 C91.5838152,30.6422182 91.8044756,28.3602408 90.8771872,28.3602408 C90.2538601,28.3602408 91.0987376,27.2970544 91.7179318,27.3052739 C92.0198777,27.3092822 92.0168208,28.0013016 92.2483124,28.3602408 C92.9545189,29.455249 92.5586764,31.2023548 91.7179318,31.5663383 C90.8771872,31.9303218 90.2192437,31.3548328 89.44427,32.3258363 C88.6692964,33.2968398 89.1339683,34.1039234 88.3287387,34.1039234 C87.7919189,34.1039234 87.9054382,33.3793895 88.6692964,31.9303218 Z" id="Path-36" fill-opacity="0.26805933" fill="#000000" fill-rule="nonzero"></path>
                                            <path d="M26.1328322,79.2804748 C30.7665353,81.1639829 34.4746981,86.3829509 37.2317206,88.4566034 C39.9887432,90.5302558 52.7072521,98.7462171 64.7502065,85.3530299 C65.417799,84.6360095 65.8174835,83.0279189 66.3567964,82.5455587 C66.9061527,82.0542156 66.9975032,80.0338783 67.3131668,80.0622785 C67.669245,80.0943148 69.9388552,78.7140182 77.7321268,69.4488392 C77.2134492,72.0913917 69.369941,84.1434833 69.5971272,84.448806 C69.9486035,84.9211661 69.6071938,85.9849654 69.5971272,87.0100324 C69.5392683,92.9016585 64.2085175,105.364979 62.4823963,106.05538 C59.8389193,107.112697 23.3005351,116.607389 24.7166837,83.3732407 C24.6391664,79.2804748 24.6391664,78.6733294 26.1328322,79.2804748 Z" id="Path-37" fill-opacity="0.0618206522" fill="#000000" fill-rule="nonzero"></path>
                                            <path d="M62.3072966,68.7229646 C61.6090947,69.946347 64.0157027,68.2410083 64.4139563,67.2204502 C64.8122099,66.199892 62.840603,58.690246 60.0486147,56.7288315 C57.2566265,54.767417 53.0433071,57.6523513 51.0266435,56.7288315 C49.00998,55.8053117 59.180251,62.2177256 60.2922715,62.5865076 C61.404292,62.9552895 63.4548942,66.1884224 62.3072966,68.7229646 Z" id="Path-38" fill-opacity="0.0524796196" fill="#000000" fill-rule="nonzero"></path>
                                            <path d="M42.7885629,64.3821984 C42.3594134,64.8853382 43.3050825,64.9377692 43.7521892,65.0751714 C44.3878291,65.2705125 45.1159425,65.232139 45.4495944,65.2331707 C46.3266221,65.2358825 47.4451728,64.5735176 47.5554349,64.3821984 C47.8815979,63.8162626 46.6157999,63.8162626 46.6157999,62.5419167 C46.6157999,62.0195828 46.8598607,61.4891128 45.960314,61.4542966 C45.1699998,61.4237082 42.49053,60.8651638 42.9739387,61.4542966 C43.5038512,62.1001039 43.5038512,62.4197306 43.2559813,62.7254299 C43.0081115,63.0311292 43.2177125,63.8790585 42.7885629,64.3821984 Z" id="Path-39" fill-opacity="0.130491395" fill="#000000" fill-rule="nonzero"></path>
                                            <path d="M24.6765751,72.7311131 L19.7046002,74.5455498 C15.2075035,86.6050539 16.036166,96.9604744 22.1905877,105.611811 C31.4222202,118.588817 47.9576988,123.895719 72.7265874,112.655535 C97.4954761,101.415351 96.1146229,71.8730304 94.3639127,69.4488392 C93.1967725,67.8327118 89.7371357,66.4282919 83.9850022,65.2355795" id="Path-41" stroke="#000000" fill-rule="nonzero"></path>
                                            <path d="M72.0390782,101.369005 C77.1065781,103.262214 70.4921737,109.906582 64.7502065,112.38916 C59.0082393,114.871738 59.8447708,116.314096 58.529703,117.07062 C57.2146353,117.827143 27.2375968,125.766899 17.9369768,96.2830672 C15.9095465,85.5241372 16.8652056,84.3616873 19.7046002,74.5455498 C20.6731417,74.5455498 20.6731417,72.9834437 24.6765751,72.9834437 C24.6863962,73.5920199 25.7581399,74.6357857 25.6951394,76.663539 C25.6731753,77.3704837 24.4835401,78.5960079 24.4769502,79.4165067 C24.4252474,85.8539444 25.0394798,95.3173902 29.3441394,100.448162 C35.7712011,108.108648 49.7627974,112.942509 72.0390782,101.369005 Z" id="Path-42" fill-opacity="0.0542912138" fill="#000000" fill-rule="nonzero"></path>
                                            <path d="M30.1993958,74.023664 C28.8522736,75.7920451 36.2164364,84.432889 39.3233265,81.6296311 C42.4302166,78.8263732 47.0793563,76.6082978 51.5054365,79.1189644 C55.9315167,81.6296311 62.3943896,79.1189644 62.904173,79.1189644 C63.4139563,79.1189644 66.3579667,74.3223411 59.9976122,72.9834437 C53.6372577,71.6445464 55.5744989,76.9271051 43.4612522,76.1977338 C31.3480055,75.4683624 34.0347078,71.9371376 30.1993958,74.023664 Z" id="Path-86" fill-opacity="0.0255321558" fill="#000000" fill-rule="nonzero"></path>
                                            <path d="" id="Path-10" stroke="#979797"></path>
                                            <path d="M31.5785425,67.0246481 C33.0763707,67.0679532 34.5185093,66.9587787 35.9049585,66.6971247 C37.2914076,66.4354707 38.9728041,66.0180716 40.9491479,65.4449274 C42.2252537,65.8505264 43.4765558,66.0533258 44.7030542,66.0533258 C45.9295526,66.0533258 47.1352818,65.8505264 48.3202417,65.4449274 C51.5614526,66.5377567 54.7963159,66.5377567 58.0248315,65.4449274" id="Path-14" stroke="#000000" stroke-linecap="round" stroke-linejoin="round"></path>
                                            <path d="M36.0946558,68.2679255 C39.536551,68.7233291 42.6117463,68.9510309 45.3202417,68.9510309 C47.3202417,68.9510309 49.942312,68.4956273 53.1864526,67.58482" id="Path-15" stroke="#000000" stroke-linecap="round" stroke-linejoin="round"></path>
                                            <path d="M32.0453393,68.5797937 C37.4577742,71.2544643 41.4391382,72.5917997 43.9894311,72.5917997 C47.8148706,72.5917997 49.4623315,72.5759151 50.7145288,71.9834437 C51.9667261,71.3909723 56.8010377,68.526995 57.6046655,67.7432673" id="Path-16" stroke="#000000" stroke-linecap="round" stroke-linejoin="round"></path>
                                        </g>
                                    </g>
                                </g>
                                <path d="M108.328755,76.5298071 C111.553539,80.4140838 114.052083,82.7426986 115.824388,83.5156516 C118.482845,84.675081 125.324341,86.961034 127.093369,90.9211619 C128.862397,94.8812897 134.530093,89.4243152 132.039999,84.944798 C129.549906,80.4652807 128.862397,80.3083654 128.862397,77.4728055 C128.862397,74.6372455 117.779642,80.1048851 110.460576,76.5298071 C105.581199,74.1464217 104.870592,74.1464217 108.328755,76.5298071 Z" id="Path-87" fill-opacity="0.028051404" fill="#000000" fill-rule="nonzero"></path>
                            </g>
                            <path d="M75.1792039,117.712891 C39.4653657,128.506786 21.6084466,136.250396 21.6084466,140.943722 C21.6084466,147.98371 -7.30017603,182.777243 2.39864992,182.777243 C12.0974759,182.777243 48.029173,168.911228 48.029173,173.125946 C48.029173,177.340664 70.7948137,176.72552 95.4509595,182.777243 C120.107105,188.828966 131.15901,180.417788 137.411885,166.311614 C143.66476,152.205441 141.703514,154.122966 147.67616,152.205441 C147.67616,147.657617 162.116535,137.732566 118.209461,160.254904 C84.1088729,160.254904 69.7654537,146.074233 75.1792039,117.712891 Z" id="Path-24" fill-opacity="0.0442708333" fill="#000000" fill-rule="nonzero"></path>
                        </g>
                        <path d="M121.513556,95.6143207 C123.136389,97.2572789 126.949934,101.658632 126.949934,107.398959 C127.001088,108.412289 128.095815,108.412289 128.095815,107.134456 C128.739559,102.772038 123.080262,94.6365979 121.513556,94.6365979 C119.946849,94.6365979 121.126751,95.0372561 121.513556,95.6143207 Z" id="Path-88" fill-opacity="0.0686424366" fill="#000000" fill-rule="nonzero"></path>
                    </g>
                </g>
            </g>
        </g>
    </g>
</svg>